<?xml version="1.0" encoding="UTF-8"?>
<svg width="41px" height="33px" viewBox="0 0 41 33" version="1.1" xmlns="http://www.w3.org/2000/svg" xmlns:xlink="http://www.w3.org/1999/xlink">
    <!-- Generator: Sketch 52.6 (67491) - http://www.bohemiancoding.com/sketch -->
    <title>path3029</title>
    <desc>Created with Sketch.</desc>
    <g id="Page-1" stroke="none" stroke-width="1" fill="none" fill-rule="evenodd">
        <g id="caret-up" transform="translate(0.758929, -0.799107)" fill="#1D70B8">
            <g id="g3027" transform="translate(20.003783, 16.659883) scale(-1, 1) rotate(-180.000000) translate(-20.003783, -16.659883) translate(0.003783, 0.159883)">
                <path d="M40,3.57142857 C40,2.60416667 39.7526042,1.7671131 39.2578125,1.06026786 C38.7630208,0.353422619 38.1770833,0 37.5,0 L2.5,0 C1.82291667,0 1.23697917,0.353422619 0.7421875,1.06026786 C0.247395833,1.7671131 0,2.60416667 0,3.57142857 C0,4.53869048 0.247395833,5.37574405 0.7421875,6.08258929 L18.2421875,31.0825893 C18.7369792,31.7894345 19.3229167,32.1428571 20,32.1428571 C20.6770833,32.1428571 21.2630208,31.7894345 21.7578125,31.0825893 L39.2578125,6.08258929 C39.7526042,5.37574405 40,4.53869048 40,3.57142857 Z" id="path3029"></path>
            </g>
        </g>
    </g>
</svg>