<?xml version="1.0" encoding="UTF-8"?>
<svg width="46px" height="40px" viewBox="0 0 46 40" version="1.1" xmlns="http://www.w3.org/2000/svg" xmlns:xlink="http://www.w3.org/1999/xlink">
    <!-- Generator: Sketch 52.6 (67491) - http://www.bohemiancoding.com/sketch -->
    <title>list</title>
    <desc>Created with Sketch.</desc>
    <g id="Page-1" stroke="none" stroke-width="1" fill="none" fill-rule="evenodd">
        <g id="list" fill="#1D70B8" fill-rule="nonzero">
            <path d="M1.63265306,7.34693878 L44.0816327,7.34693878 C44.9833673,7.34693878 45.7142857,6.61602041 45.7142857,5.71428571 L45.7142857,1.63265306 C45.7142857,0.730918367 44.9833673,0 44.0816327,0 L1.63265306,0 C0.730918367,0 0,0.730918367 0,1.63265306 L0,5.71428571 C0,6.61602041 0.730918367,7.34693878 1.63265306,7.34693878 Z M1.63265306,23.6734694 L44.0816327,23.6734694 C44.9833673,23.6734694 45.7142857,22.942551 45.7142857,22.0408163 L45.7142857,17.9591837 C45.7142857,17.057449 44.9833673,16.3265306 44.0816327,16.3265306 L1.63265306,16.3265306 C0.730918367,16.3265306 0,17.057449 0,17.9591837 L0,22.0408163 C0,22.942551 0.730918367,23.6734694 1.63265306,23.6734694 Z M1.63265306,40 L44.0816327,40 C44.9833673,40 45.7142857,39.2690816 45.7142857,38.3673469 L45.7142857,34.2857143 C45.7142857,33.3839796 44.9833673,32.6530612 44.0816327,32.6530612 L1.63265306,32.6530612 C0.730918367,32.6530612 0,33.3839796 0,34.2857143 L0,38.3673469 C0,39.2690816 0.730918367,40 1.63265306,40 Z" id="Shape"></path>
        </g>
    </g>
</svg>