<?xml version="1.0" encoding="UTF-8"?>
<svg width="30px" height="70px" viewBox="0 0 30 70" version="1.1" xmlns="http://www.w3.org/2000/svg" xmlns:xlink="http://www.w3.org/1999/xlink">
    <!-- Generator: Sketch 52.6 (67491) - http://www.bohemiancoding.com/sketch -->
    <title>sort</title>
    <desc>Created with Sketch.</desc>
    <g id="Page-1" stroke="none" stroke-width="1" fill="none" fill-rule="evenodd">
        <g id="sort" fill="#0B0C0C" fill-rule="nonzero">
            <g id="g3003" transform="translate(15.000000, 35.000000) scale(-1, 1) rotate(-180.000000) translate(-15.000000, -35.000000) translate(0.000000, -0.000000)">
                <path d="M29.5566502,27.7777778 C29.5566502,26.8373843 29.3738455,26.0235822 29.0082358,25.3363716 L16.0772014,1.03081597 C15.7115918,0.343605324 15.278633,0 14.7783252,0 C14.2780172,0 13.8450585,0.343605324 13.4794489,1.03081597 L0.548414409,25.3363716 C0.182804803,26.0235822 -5.5109106e-16,26.8373843 -5.5109106e-16,27.7777778 C-5.5109106e-16,28.7181713 0.182804803,29.5319733 0.548414409,30.219184 C0.914024015,30.9063947 1.34698276,31.25 1.84729064,31.25 L27.7093596,31.25 C28.2096675,31.25 28.6426262,30.9063947 29.0082358,30.219184 C29.3738455,29.5319733 29.5566502,28.7181713 29.5566502,27.7777778 Z M29.5566502,41.8055556 C29.5566502,40.865162 29.3738455,40.0513599 29.0082358,39.3641493 C28.6426262,38.6769386 28.2096675,38.3333333 27.7093596,38.3333333 L1.84729064,38.3333333 C1.34698276,38.3333333 0.914024015,38.6769386 0.548414409,39.3641493 C0.182804803,40.0513599 -5.5109106e-16,40.865162 -5.5109106e-16,41.8055556 C-5.5109106e-16,42.7459491 0.182804803,43.5597512 0.548414409,44.2469618 L13.4794489,68.5525173 C13.8450585,69.2397281 14.2780172,69.5833334 14.7783252,69.5833334 C15.278633,69.5833334 15.7115918,69.2397281 16.0772014,68.5525173 L29.0082358,44.2469618 C29.3738455,43.5597512 29.5566502,42.7459491 29.5566502,41.8055556 Z" id="path3005"></path>
            </g>
        </g>
    </g>
</svg>