<?xml version="1.0" encoding="UTF-8"?>
<svg width="39px" height="79px" viewBox="0 0 39 79" version="1.1" xmlns="http://www.w3.org/2000/svg" xmlns:xlink="http://www.w3.org/1999/xlink">
    <!-- Generator: Sketch 52.6 (67491) - http://www.bohemiancoding.com/sketch -->
    <title>sort</title>
    <desc>Created with Sketch.</desc>
    <g id="Page-1" stroke="none" stroke-width="1" fill="none" fill-rule="evenodd">
        <g id="sort" transform="translate(-0.404018, -0.845982)" fill="#1D70B8" fill-rule="nonzero">
            <g id="g3003" transform="translate(19.904018, 40.345982) scale(-1, 1) rotate(-180.000000) translate(-19.904018, -40.345982) translate(0.404018, 0.845982)">
                <path d="M38.4236453,28.5714286 C38.4236453,27.6041667 38.1859991,26.7671131 37.7107066,26.0602679 L20.9003618,1.06026786 C20.4250693,0.353422619 19.8622229,0 19.2118227,0 C18.5614224,0 17.998576,0.353422619 17.5232836,1.06026786 L0.712938732,26.0602679 C0.237646244,26.7671131 0,27.6041667 0,28.5714286 C0,29.5386905 0.237646244,30.375744 0.712938732,31.0825893 C1.18823122,31.7894345 1.75107759,32.1428571 2.40147783,32.1428571 L36.0221675,32.1428571 C36.6725677,32.1428571 37.2354141,31.7894345 37.7107066,31.0825893 C38.1859991,30.375744 38.4236453,29.5386905 38.4236453,28.5714286 Z M38.4236453,50 C38.4236453,49.0327381 38.1859991,48.1956845 37.7107066,47.4888393 C37.2354141,46.781994 36.6725677,46.4285714 36.0221675,46.4285714 L2.40147783,46.4285714 C1.75107759,46.4285714 1.18823122,46.781994 0.712938732,47.4888393 C0.237646244,48.1956845 0,49.0327381 0,50 C0,50.9672619 0.237646244,51.8043155 0.712938732,52.5111607 L17.5232836,77.5111607 C17.998576,78.218006 18.5614224,78.5714286 19.2118227,78.5714286 C19.8622229,78.5714286 20.4250693,78.218006 20.9003618,77.5111607 L37.7107066,52.5111607 C38.1859991,51.8043155 38.4236453,50.9672619 38.4236453,50 Z" id="path3005"></path>
            </g>
        </g>
    </g>
</svg>