<?xml version="1.0" encoding="UTF-8"?>
<svg width="40px" height="40px" viewBox="0 0 40 40" version="1.1" xmlns="http://www.w3.org/2000/svg" xmlns:xlink="http://www.w3.org/1999/xlink">
    <!-- Generator: Sketch 52.6 (67491) - http://www.bohemiancoding.com/sketch -->
    <title>table</title>
    <desc>Created with Sketch.</desc>
    <g id="Page-1" stroke="none" stroke-width="1" fill="none" fill-rule="evenodd">
        <g id="table" fill="#1D70B8" fill-rule="nonzero">
            <path d="M11.4285714,31.8181818 L11.4285714,37.2727273 C11.4285714,38.030303 11.2202381,38.6742424 10.8035714,39.2045455 C10.3869048,39.7348485 9.88095238,40 9.28571429,40 L2.14285714,40 C1.54761905,40 1.04166667,39.7348485 0.625,39.2045455 C0.208333333,38.6742424 0,38.030303 0,37.2727273 L0,31.8181818 C0,31.0606061 0.208333333,30.4166667 0.625,29.8863636 C1.04166667,29.3560606 1.54761905,29.0909091 2.14285714,29.0909091 L9.28571429,29.0909091 C9.88095238,29.0909091 10.3869048,29.3560606 10.8035714,29.8863636 C11.2202381,30.4166667 11.4285714,31.0606061 11.4285714,31.8181818 Z M11.4285714,17.2727273 L11.4285714,22.7272727 C11.4285714,23.4848485 11.2202381,24.1287879 10.8035714,24.6590909 C10.3869048,25.1893939 9.88095238,25.4545455 9.28571429,25.4545455 L2.14285714,25.4545455 C1.54761905,25.4545455 1.04166667,25.1893939 0.625,24.6590909 C0.208333333,24.1287879 0,23.4848485 0,22.7272727 L0,17.2727273 C0,16.5151515 0.208333333,15.8712121 0.625,15.3409091 C1.04166667,14.8106061 1.54761905,14.5454545 2.14285714,14.5454545 L9.28571429,14.5454545 C9.88095238,14.5454545 10.3869048,14.8106061 10.8035714,15.3409091 C11.2202381,15.8712121 11.4285714,16.5151515 11.4285714,17.2727273 Z M25.7142857,31.8181818 L25.7142857,37.2727273 C25.7142857,38.030303 25.5059524,38.6742424 25.0892857,39.2045455 C24.672619,39.7348485 24.1666667,40 23.5714286,40 L16.4285714,40 C15.8333333,40 15.327381,39.7348485 14.9107143,39.2045455 C14.4940476,38.6742424 14.2857143,38.030303 14.2857143,37.2727273 L14.2857143,31.8181818 C14.2857143,31.0606061 14.4940476,30.4166667 14.9107143,29.8863636 C15.327381,29.3560606 15.8333333,29.0909091 16.4285714,29.0909091 L23.5714286,29.0909091 C24.1666667,29.0909091 24.672619,29.3560606 25.0892857,29.8863636 C25.5059524,30.4166667 25.7142857,31.0606061 25.7142857,31.8181818 Z M11.4285714,2.72727273 L11.4285714,8.18181818 C11.4285714,8.93939394 11.2202381,9.58333333 10.8035714,10.1136364 C10.3869048,10.6439394 9.88095238,10.9090909 9.28571429,10.9090909 L2.14285714,10.9090909 C1.54761905,10.9090909 1.04166667,10.6439394 0.625,10.1136364 C0.208333333,9.58333333 0,8.93939394 0,8.18181818 L0,2.72727273 C0,1.96969697 0.208333333,1.32575758 0.625,0.795454545 C1.04166667,0.265151515 1.54761905,0 2.14285714,0 L9.28571429,0 C9.88095238,0 10.3869048,0.265151515 10.8035714,0.795454545 C11.2202381,1.32575758 11.4285714,1.96969697 11.4285714,2.72727273 Z M25.7142857,17.2727273 L25.7142857,22.7272727 C25.7142857,23.4848485 25.5059524,24.1287879 25.0892857,24.6590909 C24.672619,25.1893939 24.1666667,25.4545455 23.5714286,25.4545455 L16.4285714,25.4545455 C15.8333333,25.4545455 15.327381,25.1893939 14.9107143,24.6590909 C14.4940476,24.1287879 14.2857143,23.4848485 14.2857143,22.7272727 L14.2857143,17.2727273 C14.2857143,16.5151515 14.4940476,15.8712121 14.9107143,15.3409091 C15.327381,14.8106061 15.8333333,14.5454545 16.4285714,14.5454545 L23.5714286,14.5454545 C24.1666667,14.5454545 24.672619,14.8106061 25.0892857,15.3409091 C25.5059524,15.8712121 25.7142857,16.5151515 25.7142857,17.2727273 Z M40,31.8181818 L40,37.2727273 C40,38.030303 39.7916667,38.6742424 39.375,39.2045455 C38.9583333,39.7348485 38.452381,40 37.8571429,40 L30.7142857,40 C30.1190476,40 29.6130952,39.7348485 29.1964286,39.2045455 C28.7797619,38.6742424 28.5714286,38.030303 28.5714286,37.2727273 L28.5714286,31.8181818 C28.5714286,31.0606061 28.7797619,30.4166667 29.1964286,29.8863636 C29.6130952,29.3560606 30.1190476,29.0909091 30.7142857,29.0909091 L37.8571429,29.0909091 C38.452381,29.0909091 38.9583333,29.3560606 39.375,29.8863636 C39.7916667,30.4166667 40,31.0606061 40,31.8181818 Z M25.7142857,2.72727273 L25.7142857,8.18181818 C25.7142857,8.93939394 25.5059524,9.58333333 25.0892857,10.1136364 C24.672619,10.6439394 24.1666667,10.9090909 23.5714286,10.9090909 L16.4285714,10.9090909 C15.8333333,10.9090909 15.327381,10.6439394 14.9107143,10.1136364 C14.4940476,9.58333333 14.2857143,8.93939394 14.2857143,8.18181818 L14.2857143,2.72727273 C14.2857143,1.96969697 14.4940476,1.32575758 14.9107143,0.795454545 C15.327381,0.265151515 15.8333333,0 16.4285714,0 L23.5714286,0 C24.1666667,0 24.672619,0.265151515 25.0892857,0.795454545 C25.5059524,1.32575758 25.7142857,1.96969697 25.7142857,2.72727273 Z M40,17.2727273 L40,22.7272727 C40,23.4848485 39.7916667,24.1287879 39.375,24.6590909 C38.9583333,25.1893939 38.452381,25.4545455 37.8571429,25.4545455 L30.7142857,25.4545455 C30.1190476,25.4545455 29.6130952,25.1893939 29.1964286,24.6590909 C28.7797619,24.1287879 28.5714286,23.4848485 28.5714286,22.7272727 L28.5714286,17.2727273 C28.5714286,16.5151515 28.7797619,15.8712121 29.1964286,15.3409091 C29.6130952,14.8106061 30.1190476,14.5454545 30.7142857,14.5454545 L37.8571429,14.5454545 C38.452381,14.5454545 38.9583333,14.8106061 39.375,15.3409091 C39.7916667,15.8712121 40,16.5151515 40,17.2727273 Z M40,2.72727273 L40,8.18181818 C40,8.93939394 39.7916667,9.58333333 39.375,10.1136364 C38.9583333,10.6439394 38.452381,10.9090909 37.8571429,10.9090909 L30.7142857,10.9090909 C30.1190476,10.9090909 29.6130952,10.6439394 29.1964286,10.1136364 C28.7797619,9.58333333 28.5714286,8.93939394 28.5714286,8.18181818 L28.5714286,2.72727273 C28.5714286,1.96969697 28.7797619,1.32575758 29.1964286,0.795454545 C29.6130952,0.265151515 30.1190476,0 30.7142857,0 L37.8571429,0 C38.452381,0 38.9583333,0.265151515 39.375,0.795454545 C39.7916667,1.32575758 40,1.96969697 40,2.72727273 Z" id="Shape"></path>
        </g>
    </g>
</svg>