<?xml version="1.0" encoding="UTF-8" standalone="no"?>
<!DOCTYPE svg PUBLIC "-//W3C//DTD SVG 1.1//EN" "http://www.w3.org/Graphics/SVG/1.1/DTD/svg11.dtd">
<svg width="100%" height="100%" viewBox="0 0 50 50" version="1.1" xmlns="http://www.w3.org/2000/svg" xmlns:xlink="http://www.w3.org/1999/xlink" xml:space="preserve" xmlns:serif="http://www.serif.com/" style="fill-rule:evenodd;clip-rule:evenodd;stroke-linejoin:round;stroke-miterlimit:2;">
    <path d="M21,3C11.602,3 4,10.602 4,20C4,29.398 11.602,37 21,37C24.355,37 27.461,36.016 30.094,34.344L42.375,46.625L46.625,42.375L34.5,30.281C36.68,27.422 38,23.879 38,20C38,10.602 30.398,3 21,3ZM21,7C28.199,7 34,12.801 34,20C34,27.199 28.199,33 21,33C13.801,33 8,27.199 8,20C8,12.801 13.801,7 21,7Z" style="fill:white;fill-rule:nonzero;"/>
</svg>
